<?xml version="1.0" encoding="utf-8"?>
<!-- Generator: Adobe Illustrator 21.1.0, SVG Export Plug-In . SVG Version: 6.00 Build 0)  -->
<svg xmlns="http://www.w3.org/2000/svg" xmlns:xlink="http://www.w3.org/1999/xlink" version="1.1" id="Layer_1" x="0px" y="0px" viewBox="0 0 128 128" style="enable-background:new 0 0 128 128;" xml:space="preserve" width="64px" height="64px">

<g>
	<circle cx="64" cy="64" r="50" style="fill:#FFFFFF;"/>
</g>
<g>
	<path d="M64,117c-29.2,0-53-23.8-53-53s23.8-53,53-53s53,23.8,53,53S93.2,117,64,117z M64,17c-25.9,0-47,21.1-47,47   s21.1,47,47,47s47-21.1,47-47S89.9,17,64,17z" style="fill:#3F4A54;"/>
</g>
<path d="M78,56.5C78,50.7,73.3,46,67.5,46H66v-2c0-1.7-1.3-3-3-3s-3,1.3-3,3v2h-7c-1.7,0-3,1.3-3,3c0,1.3,0.8,2.4,2,2.8  v24.3c-1.2,0.4-2,1.5-2,2.8c0,1.7,1.3,3,3,3h7v2c0,1.7,1.3,3,3,3s3-1.3,3-3v-2h1.5C73.3,82,78,77.3,78,71.5c0-2.9-1.2-5.6-3.2-7.5  C76.8,62.1,78,59.4,78,56.5z M67.5,76H58v-9h9.5c2.5,0,4.5,2,4.5,4.5S70,76,67.5,76z M67.5,61H58v-9h9.5c2.5,0,4.5,2,4.5,4.5  S70,61,67.5,61z" style="fill:#3F4A54;"/>
</svg>
